<svg width="256" height="256" viewBox="0 0 256 256" fill="none" xmlns="http://www.w3.org/2000/svg">
<path d="M127.857 1.40659C58.0197 1.40659 1.4066 58.0197 1.4066 127.857C1.4066 197.694 58.0197 254.307 127.857 254.307C197.694 254.307 254.307 197.694 254.307 127.857C254.307 58.0197 197.694 1.40659 127.857 1.40659ZM198.107 74.4469L186.889 85.2008C185.922 85.937 185.442 87.1481 185.641 88.348V167.365C185.442 168.565 185.92 169.776 186.889 170.512L197.842 181.266V183.627H142.747V181.266L154.094 170.251C155.209 169.135 155.209 168.81 155.209 167.104V103.233L123.658 183.365H119.396L82.6634 103.233V156.94C82.3571 159.199 83.1074 161.47 84.6978 163.105L99.4559 181.008V183.368H57.6066V181.008L72.3647 163.105C73.9439 161.47 74.6493 159.182 74.2671 156.94V94.8391C74.4413 93.1138 73.7838 91.4109 72.4968 90.2504L59.3769 74.4469V72.0865H100.111L131.594 141.137L159.275 72.0865H198.107V74.4469Z" fill="#6C63FF"/>
</svg>
